<svg width="49" height="49" viewBox="0 0 49 49" fill="none" xmlns="http://www.w3.org/2000/svg">
<path d="M14.8333 44.7224C18.1059 46.3753 21.7226 47.2319 25.3889 47.2224C34.3303 47.2189 42.5027 42.165 46.5 34.1668L14.8333 44.7224ZM14.8333 44.7224L2.79473 48.7352C1.23122 49.2564 -0.256261 47.7689 0.264911 46.2054L4.27778 34.1668L14.8333 44.7224ZM45.1611 33.4905L45.1582 33.4962C41.4149 40.9863 33.7617 45.7191 25.3883 45.7224L25.385 45.7224C21.9549 45.7313 18.5713 44.9299 15.5096 43.3835C15.1526 43.2032 14.7384 43.1729 14.359 43.2994L2.32039 47.3122C1.92951 47.4425 1.55764 47.0706 1.68794 46.6798L5.7008 34.6412C5.82728 34.2617 5.79699 33.8475 5.61667 33.4905C4.07022 30.4289 3.26883 27.0452 3.27778 23.6152L3.27778 23.6118C3.28102 15.2385 8.01391 7.5853 15.5039 3.84193L15.5096 3.83905C18.5713 2.2926 21.9549 1.49121 25.385 1.50016H25.3889H26.7358C37.9282 2.13801 46.8622 11.072 47.5 22.2644L47.5 23.6113L47.5 23.6152C47.5089 27.0452 46.7076 30.4289 45.1611 33.4905Z" stroke="#03A84E" stroke-width="3" stroke-linecap="round" stroke-linejoin="round"/>
</svg>
